<?xml version="1.0" encoding="UTF-8"?>
<svg width="208px" height="174px" viewBox="0 0 208 174" version="1.1" xmlns="http://www.w3.org/2000/svg" xmlns:xlink="http://www.w3.org/1999/xlink">
    <!-- Generator: Sketch 50 (54983) - http://www.bohemiancoding.com/sketch -->
    <title>LogoWhite</title>
    <desc>Created with Sketch.</desc>
    <defs></defs>
    <g id="Detal" stroke="none" stroke-width="1" fill="none" fill-rule="evenodd">
        <g id="Home_Desktop_HD_1" transform="translate(-89.000000, -198.000000)" fill="#FFFFFF">
            <g id="LogoWhite" transform="translate(89.000000, 198.000000)">
                <path d="M47.35,131 L42.15,156.65 L45.85,156.65 L42.35,173.75 L28.95,173.75 L30.55,166 L15,166 L13.4,173.75 L0,173.75 L3.5,156.65 L6.2,156.65 C8.666679,154.616657 10.5499935,152.150014 11.85,149.25 C12.650004,147.449991 13.349997,145.100014 13.95,142.2 L16.2,131 L47.35,131 Z M32.15,140 L26.2,140 L25.35,144.25 C24.8499975,146.816679 24.200004,148.983325 23.4,150.75 C22.4333285,152.883344 21.083342,154.849991 19.35,156.65 L28.75,156.65 L32.15,140 Z M79.1,149.45 C79.1,150.916674 78.8833355,152.566657 78.45,154.4 L78.1,155.95 L60.6,155.95 C60.5666665,156.183335 60.55,156.383332 60.55,156.55 C60.55,157.516672 60.849997,158.283331 61.45,158.85 C62.316671,159.683337 63.783323,160.1 65.85,160.1 C67.2833405,160.1 68.9249908,159.925002 70.775,159.575 C72.6250093,159.224998 74.283326,158.800003 75.75,158.3 L74.35,165.1 C72.4499905,165.600003 70.4500105,165.974999 68.35,166.225 C66.2499895,166.475001 64.300009,166.6 62.5,166.6 C60.4666565,166.6 58.7333405,166.450001 57.3,166.15 C55.1333225,165.683331 53.3333405,164.866672 51.9,163.7 C50.8666615,162.866662 50.0666695,161.883339 49.5,160.75 C48.7999965,159.383327 48.45,157.816676 48.45,156.05 C48.45,152.116647 49.749987,148.550016 52.35,145.35 C55.68335,141.249979 60.3666365,139.2 66.4,139.2 C70.2333525,139.2 73.249989,140.033325 75.45,141.7 C76.916674,142.833339 77.949997,144.216658 78.55,145.85 C78.9166685,146.916672 79.1,148.11666 79.1,149.45 Z M68.45,148.5 C68.45,147.366661 68.1916693,146.575002 67.675,146.125 C67.1583308,145.674998 66.56667,145.45 65.9,145.45 C65.1333295,145.45 64.4666695,145.666664 63.9,146.1 C62.8666615,146.86667 62.1666685,148.199991 61.8,150.1 L61.7,150.6 L68.2,150.6 L68.3,150.05 L68.45,148.5 Z M109.65,139.8 L108.1,147.3 L101.1,147.3 L97.3,166 L84.7,166 L88.5,147.3 L81.5,147.3 L83.05,139.8 L109.65,139.8 Z M139.35,147.15 C139.35,147.750003 139.266668,148.466663 139.1,149.3 L135.7,166 L124.2,166 L124.85,162.8 L124.65,162.8 C123.383327,164.200007 121.975008,165.183331 120.425,165.75 C118.874992,166.316669 117.066677,166.6 115,166.6 C112.466654,166.6 110.50834,166.066672 109.125,165 C107.74166,163.933328 107.05,162.316677 107.05,160.15 C107.05,158.749993 107.316664,157.483339 107.85,156.35 C108.51667,154.916659 109.658325,153.633339 111.275,152.5 C112.891675,151.366661 114.774989,150.600002 116.925,150.2 C119.075011,149.799998 121.999982,149.6 125.7,149.6 L127.55,149.6 L127.7,148.8 L127.75,148.25 C127.75,147.483329 127.400004,146.883335 126.7,146.45 C125.799996,145.88333 124.383343,145.6 122.45,145.6 C121.149994,145.6 119.566676,145.799998 117.7,146.2 C115.833324,146.600002 114.166674,147.08333 112.7,147.65 L114.1,140.8 C116.133344,140.266664 118.249989,139.866668 120.45,139.6 C122.650011,139.333332 124.733324,139.2 126.7,139.2 C131.566691,139.2 135.033323,140.133324 137.1,142 C138.600008,143.33334 139.35,145.04999 139.35,147.15 Z M126.5,154.6 L125.85,154.6 C124.316659,154.6 123.325002,154.641666 122.875,154.725 C122.424998,154.808334 121.89167,154.999999 121.275,155.3 C120.65833,155.600001 120.191668,156.016664 119.875,156.55 C119.558332,157.083336 119.4,157.63333 119.4,158.2 C119.4,158.86667 119.633331,159.358332 120.1,159.675 C120.566669,159.991668 121.149997,160.15 121.85,160.15 C122.950006,160.15 123.874996,159.825003 124.625,159.175 C125.375004,158.524997 125.899999,157.48334 126.2,156.05 L126.5,154.6 Z M176.2,139.8 L170.85,166 L158.25,166 L162.05,147.3 L157.75,147.3 L156.85,151.7 C156.18333,155.03335 155.666669,157.266661 155.3,158.4 C154.63333,160.500011 153.741672,162.174994 152.625,163.425 C151.508328,164.675006 150.183341,165.549998 148.65,166.05 C147.516661,166.416669 146.183341,166.6 144.65,166.6 C143.383327,166.6 142.250005,166.533334 141.25,166.4 C140.249995,166.266666 139.183339,166.016668 138.05,165.65 L139.65,158.9 C140.216669,159.133334 140.866663,159.25 141.6,159.25 C142.600005,159.25 143.399997,158.675006 144,157.525 C144.600003,156.374994 145.249997,154.100017 145.95,150.7 L148.2,139.8 L176.2,139.8 Z M207.45,155.65 C207.45,158.150013 206.566675,160.333324 204.8,162.2 C202.399988,164.733346 198.716691,166 193.75,166 L175.85,166 L181.15,139.8 L193.8,139.8 L192.1,148.15 L196.8,147.9 C200.966687,147.9 203.933324,148.866657 205.7,150.8 C206.866672,152.066673 207.45,153.683324 207.45,155.65 Z M194.75,156.3 C194.75,155.599997 194.550002,155.050002 194.15,154.65 C193.649998,154.149997 192.933338,153.9 192,153.9 L190.65,153.9 L189.45,159.8 L190.5,159.8 C192.066675,159.8 193.216663,159.366671 193.95,158.5 C194.483336,157.866664 194.75,157.133337 194.75,156.3 Z" id="Деталь"></path>
                <g id="Logo-Detal-White" transform="translate(4.000000, 0.000000)">
                    <g id="Logo---Detal-Copy">
                        <path d="M110.312766,0 L104.131915,10.758069 L114.693617,10.758069 L110.312766,0 Z M0,96.9541034 L44.4223404,96.9541034 L44.4234043,123.12131 L59.4585106,96.9541034 L149.352128,96.9541034 L145.329787,86.9496552 L60.3531915,86.9496552 L54.3797872,97.3464138 L54.3787234,86.9496552 L32.1680851,86.9496552 L96.3212766,12.2973793 L0,96.9541034 Z M101.478723,15.376 L97.2776596,22.6877241 L119.490426,22.6877241 L116.551064,15.376 L101.478723,15.376 Z M94.6255319,27.3045862 L90.4234043,34.6163103 L124.287234,34.6163103 L121.347872,27.3045862 L94.6255319,27.3045862 Z M87.7702128,39.2331724 L83.5680851,46.5448966 L129.084043,46.5448966 L126.144681,39.2331724 L87.7702128,39.2331724 Z M80.9159574,51.1628276 L76.7148936,58.4734828 L133.880851,58.4734828 L130.940426,51.1628276 L80.9159574,51.1628276 Z M74.0617021,63.0914138 L69.8606383,70.402069 L138.676596,70.402069 L135.737234,63.0914138 L74.0617021,63.0914138 Z M67.2074468,75.02 L63.006383,82.3317241 L143.47234,82.3317241 L140.534043,75.02 L67.2074468,75.02 Z" id="Fill-1"></path>
                    </g>
                </g>
            </g>
        </g>
    </g>
</svg>